<?xml version="1.0" encoding="UTF-8"?>
<svg width="112.59" height="129.6" inkscape:version="1.1 (c68e22c387, 2021-05-23)" sodipodi:docname="asp.net_logo3.svg" version="1.0" viewBox="0 0 84.441 97.203" xmlns="http://www.w3.org/2000/svg" xmlns:cc="http://creativecommons.org/ns#" xmlns:inkscape="http://www.inkscape.org/namespaces/inkscape" xmlns:rdf="http://www.w3.org/1999/02/22-rdf-syntax-ns#" xmlns:sodipodi="http://sodipodi.sourceforge.net/DTD/sodipodi-0.dtd" zoomAndPan="magnify"><sodipodi:namedview bordercolor="#666666" borderlayer="false" borderopacity="1.0" inkscape:current-layer="svg645" inkscape:cx="1.1083744" inkscape:cy="85.46798" inkscape:pagecheckerboard="true" inkscape:pageopacity="0.0" inkscape:pageshadow="2" inkscape:window-height="992" inkscape:window-maximized="1" inkscape:window-width="1920" inkscape:window-x="-8" inkscape:window-y="-8" inkscape:zoom="4.06" pagecolor="#ffffff" scale-x="0.75" showborder="true" showgrid="false"/><defs><clipPath id="id1"><path d="m32.914 27.148h84.441v97.203h-84.441z"/></clipPath><clipPath id="id2"><path d="m55.984 62.539h38.25v24.75h-38.25z"/></clipPath></defs><g transform="translate(-32.914 -27.148)"><g clip-path="url(#id1)" stroke="#ff6f00"><path transform="scale(.75)" d="m73.389 147.31-26.715-15.372-0.12504-61.79 53.622-30.861 53.4 30.729v61.976l-26.601 15.331c-14.631 8.4321-26.661 15.337-26.734 15.345-0.073 8e-3 -12.154-6.9036-26.847-15.358zm56.846-37.335 0.0626-29.924-18.103-18.108h-20.867c-20.378 0-20.873 0.01115-21.122 0.47642-0.3561 0.66539-0.35559 76.462 5.18e-4 77.127 0.25091 0.46883 0.79133 0.47628 30.111 0.41484l29.855-0.0626z" fill="#ff9a4d" stroke-width=".2463"/><path d="m75.559 27.398c13.801 7.9453 27.602 15.891 41.402 23.836l4e-3 -0.0039c0.25 0.14453 0.38672 0.40625 0.38282 0.67188v47.719c0 0.30469-0.1836 0.57032-0.44922 0.69141-13.801 7.9453-27.586 15.883-41.387 23.828v4e-3c-0.26172 0.14844-0.57812 0.12891-0.8125-0.0312-13.801-7.9453-27.598-15.891-41.402-23.836l-0.0039 4e-3c-0.2462-0.14478-0.38682-0.4065-0.37901-0.67212v-47.715c0-0.30859 0.18359-0.57812 0.44531-0.69922 13.801-7.9414 27.59-15.879 41.387-23.824 0.26172-0.15234 0.57812-0.12891 0.8125 0.02734zm-0.42969 1.5156c-13.562 7.8047-27.121 15.609-40.688 23.414v46.855c14.996 8.6328 26 14.961 40.688 23.418 14.992-8.6289 26-14.965 40.688-23.418v-46.855c-14.992-8.625-25.996-14.961-40.688-23.414z" fill="#ff6f00" stroke-width="1.275"/></g><g fill="#ff6f00" fill-rule="evenodd" stroke="#ff6f00"><path d="m97.105 104.98h-43.949c-0.28516 0-0.51562-0.23047-0.51562-0.51172v-57.422c0-0.28125 0.22656-0.51562 0.51562-0.51562h30.656c0.28125 0 0.51172 0.23047 0.51172 0.51562 0 0.28125-0.23047 0.51172-0.51562 0.51172h-30.141v56.395h42.922v-43.648c0-0.28516 0.23047-0.51563 0.51562-0.51563 0.28125 0 0.51562 0.23047 0.51562 0.51563v44.164c0 0.28125-0.23047 0.51172-0.51562 0.51172z"/><path d="m84.324 48.285v10.418c0 0.60156 0.49219 1.0859 1.0898 1.0859h10.449zm13.297 12.035c0 0.0625-0.01563 0.12109-0.03906 0.17969-0.07813 0.19141-0.26562 0.31641-0.47656 0.31641h-11.691c-1.1641 0-2.1172-0.94922-2.1172-2.1133v-11.656c0-0.20703 0.125-0.39453 0.31641-0.47266 0.19141-0.07813 0.41406-0.03906 0.5625 0.10938l13.297 13.254c0.08984 0.09766 0.14453 0.21875 0.14844 0.34766z"/></g><g fill="#ff6f00" fill-rule="evenodd"><g stroke="#ff6f00"><path d="m66.215 102.92c-0.06641 0-0.12891-0.0117-0.19141-0.0312-0.26172-0.10547-0.39453-0.40625-0.28906-0.66797l2.6797-6.7578c0.10547-0.26563 0.40625-0.39063 0.66797-0.28906 0.26172 0.10547 0.39453 0.40234 0.28906 0.66797l-2.6797 6.7539c-0.07813 0.20313-0.27734 0.32422-0.47656 0.32422z"/><path d="m71.574 102.92c-0.20312 0-0.39844-0.12109-0.48047-0.32422l-2.6797-6.7539c-0.10156-0.26562 0.02734-0.5625 0.29297-0.66797 0.26172-0.10547 0.55859 0.02344 0.66797 0.28906l2.6797 6.7578c0.10547 0.26172-0.02734 0.55859-0.28906 0.66797-0.0625 0.0195-0.12891 0.0312-0.19141 0.0312z"/><path d="m70.547 100.35h-3.3086c-0.28516 0-0.51562-0.23047-0.51562-0.51563 0-0.28125 0.23047-0.51172 0.51562-0.51172h3.3125c0.28125 0 0.51172 0.23047 0.51172 0.51172 0 0.28516-0.23047 0.51563-0.51562 0.51563z"/><path d="m76.07 102.91c-0.5 0-0.95703-0.082-1.3516-0.25-0.42578-0.17578-0.76172-0.44922-0.99609-0.80859-0.23047-0.35156-0.35938-0.75-0.37891-1.1836-0.0078-0.28516 0.21484-0.52344 0.49609-0.53516 0.28125-8e-3 0.52344 0.21094 0.53516 0.49219 0.0078 0.2539 0.07813 0.46875 0.20312 0.66406 0.125 0.1875 0.29688 0.32812 0.53906 0.42578 0.26953 0.11328 0.58984 0.16797 0.95312 0.16797 0.32813 0 0.625-0.0508 0.88672-0.15625 0.23047-0.0937 0.39062-0.22656 0.50391-0.39453 0.11328-0.17188 0.16797-0.35156 0.16797-0.54688 0-0.74218-0.55078-0.97656-1.8086-1.3242-1.1016-0.30859-2.4727-0.69141-2.4727-2.1914 0-0.39844 0.10938-0.76953 0.33594-1.1133 0.22266-0.33984 0.55078-0.60156 0.97266-0.77734 0.38672-0.15625 0.81641-0.23828 1.2773-0.23828 0.50391 0 0.95703 0.08203 1.3555 0.25 0.42188 0.17969 0.75781 0.44922 0.99609 0.80859 0.23047 0.35547 0.35156 0.75 0.37109 1.1875 0.01172 0.28125-0.20703 0.51953-0.49219 0.53125-0.27734 0.0078-0.52344-0.21484-0.53125-0.49609-0.01172-0.25-0.07812-0.46875-0.21094-0.66406-0.11719-0.1875-0.29688-0.32422-0.53516-0.42188-0.26562-0.11328-0.58594-0.17188-0.95312-0.17188-0.32812 0-0.625 0.05859-0.88672 0.16016-0.22266 0.09766-0.39062 0.22266-0.50391 0.39453-0.10938 0.17188-0.16797 0.35156-0.16797 0.54688 0 0.65234 0.52734 0.87109 1.7227 1.2031 1.082 0.30078 2.5586 0.71484 2.5586 2.3125 0 0.39453-0.10938 0.76953-0.33594 1.1094-0.21875 0.34375-0.55078 0.60938-0.96875 0.78125-0.39453 0.15625-0.82031 0.23828-1.2812 0.23828z"/><path d="m80.941 98.516h1.4141c0.65234 0 1.1758-0.52734 1.1758-1.1758 0-0.64844-0.52734-1.1719-1.1758-1.1719h-1.4141zm1.4141 1.0234h-1.9297c-0.28516 0-0.51562-0.23047-0.51562-0.51172v-3.375c0-0.28125 0.23047-0.51172 0.51172-0.51172h1.9336c1.2148 0 2.2031 0.98438 2.2031 2.1992 0.0039 1.2148-0.98828 2.1992-2.2031 2.1992z"/><path d="m80.426 102.91c-0.28516 0-0.51562-0.23047-0.51562-0.51172v-3.375c0-0.28516 0.23047-0.51172 0.51172-0.51172 0.28906 0 0.51562 0.22656 0.51562 0.51172v3.375c0.0039 0.28125-0.22656 0.51172-0.51172 0.51172z"/></g><path d="m58.957 103.95h32.348v-8.1953c0-0.91406-0.74609-1.6562-1.6602-1.6562h-29.027c-0.91406 0-1.6602 0.74219-1.6602 1.6562zm32.863 1.0273h-33.379c-0.28516 0-0.51562-0.23047-0.51562-0.51172v-8.7109c0-1.4805 1.207-2.6797 2.6914-2.6797h29.027c1.4805 0 2.6875 1.1992 2.6875 2.6797v8.7109c0 0.28125-0.23047 0.51172-0.51172 0.51172z"/></g><g clip-path="url(#id2)" stroke="#ff6f00"><path d="m59.051 62.539c-1.6797 0-3.0586 1.3945-3.0586 3.0938v18.562c0 1.6992 1.3789 3.0938 3.0586 3.0938h32.117c1.6836 0 3.0625-1.3945 3.0625-3.0938v-18.562c0-1.6992-1.3789-3.0938-3.0625-3.0938zm0 1.5469h32.117c0.85547 0 1.5312 0.68359 1.5312 1.5469v18.562c0 0.86328-0.67578 1.5469-1.5312 1.5469h-32.117c-0.85547 0-1.5273-0.68359-1.5273-1.5469v-18.562c0-0.86328 0.67187-1.5469 1.5273-1.5469zm3.0586 4.6406v12.375h3.0586v-8.2422l3.8242 5.1484 3.8242-5.1484v8.2422h3.0586v-12.375h-3.0586l-3.8242 5.1953-3.8242-5.1953zm20.648 0v6.1875h-3.8242l5.3555 6.1875 5.3516-6.1875h-3.8242v-6.1875z" fill="#ff6f00" stroke="#ff6f00"/></g><g fill="#fff" stroke="#ff6f00" stroke-width=".29608"><path transform="scale(.75)" d="m72.278 101.02v-36.836h37.951l0.0521 7.5326c0.0571 8.2451 0.0234 7.9733 1.1245 9.0845 0.96263 0.97156 0.9802 0.97344 9.1106 0.97344h7.4947v56.081h-4.8766v-5.4918c0-4.5628-0.0456-5.6009-0.26956-6.1369-0.34356-0.82226-0.866-1.38-1.687-1.801-0.63137-0.32377-1.2492-0.33216-21.19-0.28784l-20.539 0.0457-0.73965 0.52249c-1.4339 1.0129-1.4604 1.1446-1.5177 7.5326l-0.05039 5.6168h-4.8629zm50.957 15.083c1.0337-0.46948 1.947-1.4901 2.2518-2.5163 0.38766-1.3054 0.38766-26.092 0-27.398-0.30475-1.0262-1.2181-2.0468-2.2518-2.5163-0.68019-0.30892-1.6726-0.3228-23.091-0.3228-21.303 0-22.414 0.01531-23.077 0.3182-0.83243 0.38021-1.6956 1.2305-2.1254 2.0937-0.29294 0.58831-0.31286 1.4877-0.31286 14.126 0 12.904 0.01452 13.527 0.33046 14.163 0.43621 0.87833 1.2402 1.6642 2.104 2.0566 0.6668 0.30291 1.7779 0.31823 23.081 0.31823 21.418 0 22.411-0.0139 23.091-0.3228z"/><path transform="scale(.75)" d="m113.42 78.774c-0.23654-0.23654-0.31252-12.331-0.0775-12.331 0.0723 0 2.9522 2.8215 6.3996 6.2699l6.2681 6.2699h-6.1906c-4.5827 0-6.2449-0.05428-6.3996-0.209z"/><path transform="scale(.75)" d="m77.399 113.57-0.59216-0.59216v-26.194l1.1843-1.1843h44.307l1.1843 1.1843v26.194l-0.59216 0.59216-0.59216 0.59215h-44.307zm9.5094-10.554c0-3.269 0.06341-5.2249 0.16939-5.2249 0.09316 0 1.21 1.4085 2.4818 3.1299 1.2718 1.7215 2.3607 3.1322 2.4196 3.135 0.05892 3e-3 1.1515-1.4057 2.4279-3.1299 1.2764-1.7242 2.3842-3.135 2.4618-3.135s0.14105 2.3512 0.14105 5.2249v5.2249h4.1799v-16.72h-4.1528l-2.4921 3.3962c-1.3707 1.8679-2.5328 3.3916-2.5825 3.3859-0.04972-0.0057-1.1876-1.5297-2.5287-3.3867l-2.4383-3.3763-4.267-0.019v16.72h4.1799zm29.187 0.98824 3.4982-4.0361-5.1677-0.09616v-8.3508h-4.1799v8.3506l-5.0597 0.0964 3.5928 4.1475c1.976 2.2811 3.6435 4.0974 3.7054 4.0361 0.062-0.0613 1.6868-1.9276 3.6109-4.1475z"/><path transform="scale(.75)" d="m78.722 132.48c0-5.3092 0.0048-5.3804 0.39824-5.9651 0.24898-0.36999 0.6491-0.67447 1.0676-0.8124 0.52766-0.17392 4.8229-0.21079 20.291-0.17417 18.408 0.0436 19.651 0.0655 20.091 0.35366 1.0713 0.70203 1.0781 0.74149 1.1381 6.6077l0.0549 5.3636h-43.041zm10.086 4.6082c0.11074-0.13344 0.4566-0.89758 0.76857-1.6981l0.56722-1.4555h3.4086l0.63987 1.5509c0.35193 0.85298 0.77702 1.6363 0.94466 1.7408 0.39358 0.24521 0.89273-0.0468 0.97017-0.56747 0.07902-0.53133-3.5792-9.7225-3.922-9.8541-0.47778-0.18334-0.86444 0.0622-1.1547 0.73329-0.37949 0.8774-3.0603 7.63-3.3446 8.4246-0.1924 0.53773-0.18785 0.6907 0.0298 1.0014 0.29478 0.42086 0.79872 0.47813 1.0925 0.12415zm13.884 0.0445c2.5102-0.63208 3.0696-3.8317 0.89045-5.0927-0.40658-0.23526-1.4142-0.63161-2.2391-0.88078-0.8249-0.24916-1.6282-0.59492-1.7852-0.76834-1.0107-1.1168 0.74522-2.4892 2.5087-1.9608 0.75914 0.22744 1.3858 0.91305 1.3858 1.5161 0 0.45581 0.52669 0.82067 0.95013 0.65818 0.4553-0.17471 0.60736-0.6443 0.44366-1.3701-0.34811-1.5435-1.5958-2.3895-3.54-2.4004-2.0594-0.0116-3.3732 0.93061-3.5557 2.5501-0.18644 1.6541 0.70272 2.5442 3.3337 3.337 2.2538 0.67917 2.8477 1.4206 1.9623 2.4499-0.32741 0.38064-0.58841 0.48541-1.3498 0.54185-1.2006 0.089-2.0917-0.32775-2.3121-1.0814-0.24807-0.84799-0.38749-1.0418-0.79262-1.1019-0.90337-0.134-1.1342 0.74246-0.5263 1.9982 0.70371 1.4537 2.606 2.1137 4.6259 1.6051zm5.0801-0.0109c0.13893-0.13894 0.20899-0.89791 0.20899-2.2641v-2.0551h1.2248c1.4729 0 2.1693-0.26362 2.9026-1.0988 1.4118-1.608 0.60562-4.2368-1.4768-4.8151-1.026-0.28496-3.3748-0.23021-3.831 0.0893-0.38397 0.26894-0.38708 0.30947-0.38708 5.0383 0 4.1016 0.0382 4.8054 0.27368 5.0409 0.32595 0.32595 0.79553 0.35395 1.0848 0.0647z"/><path transform="scale(.75)" d="m107.98 129.75v-1.4804l1.0014 3e-3c1.1568 3e-3 1.7589 0.25474 2.1115 0.88285 0.30571 0.54464 0.1607 1.236-0.36125 1.7222-0.30386 0.28309-0.6144 0.35315-1.5654 0.35315h-1.1863z"/><path transform="scale(.75)" d="m90.914 132.15c0-0.2916 0.79437-2.1404 0.91966-2.1404 0.13226 0 0.63687 1.0549 0.89558 1.8723 0.11848 0.37432 0.08059 0.39187-0.8456 0.39187-0.5333 0-0.96964-0.0557-0.96964-0.12375z"/></g></g><metadata><rdf:RDF><cc:Work rdf:about=""><cc:license rdf:resource="http://creativecommons.org/publicdomain/zero/1.0/"/></cc:Work><cc:License rdf:about="http://creativecommons.org/publicdomain/zero/1.0/"><cc:permits rdf:resource="http://creativecommons.org/ns#Reproduction"/><cc:permits rdf:resource="http://creativecommons.org/ns#Distribution"/><cc:permits rdf:resource="http://creativecommons.org/ns#DerivativeWorks"/></cc:License></rdf:RDF></metadata></svg>
